<svg width="396" height="396" viewBox="0 0 396 396" fill="none" xmlns="http://www.w3.org/2000/svg">
<path fill-rule="evenodd" clip-rule="evenodd" d="M102.155 24.7343C138.064 4.87072 179.258 -3.34117 220.037 1.23457C230.902 2.45373 238.722 12.2515 237.503 23.1186C236.284 33.9856 226.488 41.8068 215.623 40.5877C182.999 36.9271 150.045 43.4966 121.317 59.3875C92.5898 75.2783 69.5097 99.7052 55.2694 129.289C41.0291 158.873 36.3325 192.152 41.8292 224.522C47.3259 256.893 62.7443 286.755 85.9515 309.977C109.159 333.2 139.008 348.636 171.37 354.15C203.732 359.664 237.007 354.984 266.594 340.756C296.18 326.528 320.614 303.456 336.516 274.732C352.419 246.008 359.004 213.051 355.361 180.42C354.147 169.552 361.972 159.758 372.838 158.544C383.703 157.331 393.496 165.157 394.709 176.024C399.264 216.813 391.032 258.01 371.154 293.915C351.276 329.82 320.733 358.66 283.75 376.445C246.768 394.229 205.173 400.08 164.721 393.188C124.268 386.295 86.9569 367 57.9478 337.972C28.9388 308.943 9.66582 271.616 2.79494 231.153C-4.07594 190.69 1.79485 149.091 19.5952 112.111C37.3956 75.1315 66.2457 44.5979 102.155 24.7343ZM324.389 1.52932C331.786 4.59398 336.61 11.8138 336.61 19.8221V59.4221H376.203C384.21 59.4221 391.428 64.2462 394.492 71.6449C397.557 79.0437 395.863 87.56 390.201 93.2228L330.811 152.623C327.099 156.336 322.063 158.422 316.813 158.422H265.623L236.278 187.773C237.166 191.087 237.627 194.531 237.627 198.022C237.627 208.525 233.455 218.597 226.03 226.023C218.605 233.45 208.534 237.622 198.033 237.622C187.533 237.622 177.462 233.45 170.037 226.023C162.612 218.597 158.44 208.525 158.44 198.022C158.44 187.519 162.612 177.447 170.037 170.021C177.462 162.594 187.533 158.422 198.033 158.422C201.524 158.422 204.967 158.883 208.281 159.771L237.627 130.421V79.2221C237.627 73.9708 239.712 68.9346 243.425 65.2214L302.815 5.82142C308.477 0.158661 316.991 -1.53534 324.389 1.52932ZM277.22 118.822H308.613L328.41 99.022H316.813C305.88 99.022 297.016 90.1573 297.016 79.2221V67.6235L277.22 87.4235V118.822ZM132.043 99.2435C151.576 86.1895 174.541 79.2221 198.033 79.2221C208.967 79.2221 217.83 88.0868 217.83 99.022C217.83 109.957 208.967 118.822 198.033 118.822C182.372 118.822 167.062 123.467 154.04 132.17C141.018 140.872 130.868 153.242 124.875 167.713C118.881 182.185 117.313 198.11 120.369 213.473C123.424 228.836 130.966 242.948 142.04 254.025C153.115 265.101 167.224 272.644 182.585 275.7C197.946 278.756 213.867 277.188 228.337 271.193C242.806 265.199 255.173 255.047 263.875 242.023C272.576 228.999 277.22 213.686 277.22 198.022C277.22 187.087 286.083 178.222 297.016 178.222C307.95 178.222 316.813 187.087 316.813 198.022C316.813 221.518 309.847 244.487 296.795 264.024C283.743 283.56 265.193 298.787 243.488 307.779C221.784 316.77 197.902 319.123 174.861 314.539C151.82 309.955 130.655 298.641 114.044 282.026C97.4319 265.412 86.1193 244.244 81.5361 221.199C76.953 198.154 79.3052 174.267 88.2954 152.559C97.2855 130.851 112.51 112.297 132.043 99.2435Z" fill="#7A5C3E"/>
</svg>
