<svg width="402" height="420" viewBox="0 0 402 420" fill="none" xmlns="http://www.w3.org/2000/svg">
<path d="M92.0201 164.348H55.5703V292.174H92.0201V164.348Z" fill="#A1A1A1"/>
<path d="M201.37 164.348H164.92V292.174H201.37V164.348Z" fill="#A1A1A1"/>
<path d="M365.393 91.3044L183.144 0L0.895508 91.3044V127.826H365.393V91.3044Z" fill="#A1A1A1"/>
<path d="M0.895508 328.697V365.219H226.884C223.057 353.532 221.052 341.297 220.323 328.697H0.895508Z" fill="#A1A1A1"/>
<path d="M310.718 205.617V164.348H274.268V223.878L310.718 205.617Z" fill="#A1A1A1"/>
<path d="M328.943 237.391L256.044 273.912V320.478C256.044 366.495 287.208 409.591 328.943 419.999C370.678 409.591 401.843 366.495 401.843 320.478V273.912L328.943 237.391ZM315.822 365.217L278.825 328.147L298.143 308.791L315.822 326.504L359.743 283.043L379.062 302.399L315.822 365.217Z" fill="#A1A1A1"/>
</svg>
