<svg width="100%" height="100%" viewBox="0 0 506 506" fill="none" xmlns="http://www.w3.org/2000/svg">
<path d="M211.65 619C162.639 619 120.511 610.26 85.2646 592.78C50.0184 575.301 24.053 551.266 7.36836 520.676C-9.31623 490.087 -14.6344 455.023 -8.58628 415.486H160.345C157.425 437.335 163.057 454.919 177.238 468.237C191.42 481.347 209.982 487.902 232.923 487.902C251.068 487.902 267.544 484.156 282.351 476.665C297.159 468.965 309.568 458.249 319.579 444.514C329.59 430.572 336.159 414.237 339.288 395.509C342.416 376.78 341.269 360.549 335.846 346.815C330.424 332.873 321.56 322.156 309.255 314.665C296.95 306.965 281.934 303.116 264.207 303.116C245.645 303.116 227.918 307.59 211.025 316.538C194.132 325.277 180.575 337.451 170.356 353.058L22.6973 323.092L106.537 -29H537L514.476 109.59H226.667L190.378 250.676H194.132C207.479 231.324 227.501 215.301 254.196 202.607C281.1 189.705 310.715 183.254 343.042 183.254C381.208 183.254 413.743 192.098 440.646 209.786C467.55 227.474 487.051 251.925 499.147 283.139C511.243 314.353 513.85 350.145 506.968 390.514C500.085 435.046 483.192 474.48 456.288 508.815C429.384 543.15 394.972 570.098 353.052 589.659C311.132 609.22 263.998 619 211.65 619Z" fill="#6E756C"/>
</svg>
