<svg width="421" height="421" viewBox="0 0 421 421" fill="none" xmlns="http://www.w3.org/2000/svg">
<path d="M210.5 378.9C236.812 378.9 259.182 369.694 277.607 351.282C296.033 332.871 305.239 310.501 305.225 284.175C305.211 257.848 296.005 235.486 277.607 217.089C259.21 198.691 236.841 189.478 210.5 189.45C184.159 189.422 161.797 198.635 143.414 217.089C125.03 235.542 115.817 257.905 115.775 284.175C115.733 310.445 124.946 332.814 143.414 351.282C161.882 369.75 184.244 378.956 210.5 378.9ZM148.929 162.085C155.945 158.226 163.404 155.16 171.305 152.886C179.206 150.613 187.184 149.118 195.239 148.402L142.087 42.1H89.4625L148.929 162.085ZM92.62 353.64C86.6558 343.466 82.0038 332.506 78.6638 320.76C75.3239 309.014 73.661 296.819 73.675 284.175C73.689 271.531 75.359 259.343 78.6849 247.611C82.0108 235.879 86.6558 224.912 92.62 214.71C77.885 219.622 65.7812 228.308 56.3088 240.77C46.8363 253.231 42.1 267.7 42.1 284.175C42.1 300.65 46.8363 315.125 56.3088 327.601C65.7812 340.077 77.885 348.756 92.62 353.64ZM328.38 353.64C343.115 348.728 355.219 340.049 364.691 327.601C374.164 315.154 378.9 300.678 378.9 284.175C378.9 267.672 374.164 253.203 364.691 240.77C355.219 228.336 343.115 219.65 328.38 214.71C334.344 224.884 338.996 235.851 342.336 247.611C345.676 259.371 347.339 271.559 347.325 284.175C347.311 296.791 345.641 308.986 342.315 320.76C338.989 332.534 334.344 343.494 328.38 353.64ZM210.5 421C196.467 421 183.051 418.979 170.252 414.938C157.454 410.896 145.61 405.381 134.72 398.392C131.562 399.094 128.405 399.536 125.247 399.718C122.09 399.901 118.757 399.978 115.249 399.95C83.3229 399.95 56.1333 388.723 33.68 366.27C11.2267 343.817 0 316.627 0 284.701C0 254.179 10.1742 228.042 30.5225 206.29C50.8708 184.538 75.9554 172.435 105.776 169.979L36.3112 30.5225C32.8029 23.5058 33.0695 16.6646 37.1111 9.99875C41.1527 3.33291 47.2011 0 55.2562 0H142.614C150.683 0 157.966 2.105 164.464 6.315C170.961 10.525 176.132 16.1383 179.977 23.155L210.5 84.2L241.022 23.155C244.882 16.1383 250.06 10.525 256.557 6.315C263.055 2.105 270.331 0 278.386 0H365.744C373.813 0 379.868 3.33291 383.91 9.99875C387.952 16.6646 388.211 23.5058 384.689 30.5225L315.75 168.926C345.571 171.733 370.571 184.012 390.751 205.764C410.931 227.515 421.014 253.652 421 284.175C421 316.452 409.773 343.817 387.32 366.27C364.867 388.723 337.502 399.95 305.225 399.95C302.067 399.95 298.826 399.866 295.5 399.697C292.174 399.529 288.925 399.087 285.754 398.371C274.878 405.388 263.125 410.917 250.495 414.959C237.865 419 224.533 421.014 210.5 421ZM210.5 312.592L184.714 332.064C182.609 333.818 180.504 333.909 178.399 332.337C176.294 330.766 175.592 328.745 176.294 326.275L186.292 294.174L160.506 275.755C158.401 274.001 157.7 271.98 158.401 269.693C159.103 267.405 160.857 266.268 163.664 266.282H195.239L205.237 232.076C205.939 229.62 207.693 228.392 210.5 228.392C213.307 228.392 215.061 229.62 215.762 232.076L225.761 266.282H257.336C260.143 266.282 261.897 267.426 262.599 269.714C263.3 272.001 262.599 274.015 260.494 275.755L234.707 294.174L244.706 326.275C245.408 328.731 244.706 330.752 242.601 332.337C240.496 333.923 238.391 333.832 236.286 332.064L210.5 312.592ZM272.071 162.085L332.064 42.1H278.912L234.181 131.562L244.18 151.56C249.092 152.963 253.828 154.458 258.389 156.044C262.95 157.629 267.51 159.643 272.071 162.085Z" fill="#53586B"/>
</svg>
