<svg width="100%" height="100%" viewBox="0 0 479 372" fill="none" xmlns="http://www.w3.org/2000/svg">
<path d="M2.8261 206.005C4.77304 220.833 12.0699 234.449 23.3557 244.314C34.6415 254.178 49.1454 259.618 64.162 259.618C79.1787 259.618 93.6826 254.178 104.968 244.314C116.254 234.449 123.551 220.833 125.498 206.005H2.8261ZM337.044 330.015C337.047 331.268 336.803 332.51 336.324 333.67C335.846 334.829 335.143 335.884 334.255 336.772C333.367 337.661 332.312 338.367 331.15 338.849C329.988 339.331 328.742 339.581 327.483 339.583H148.758C143.508 339.583 139.178 335.29 139.178 330.015C139.191 327.495 140.206 325.082 142.002 323.307C143.798 321.531 146.228 320.537 148.758 320.542H327.473C332.761 320.542 337.044 324.777 337.044 330.015ZM140.222 344.458H336.009V372H140.222V344.458ZM353.502 206.005C355.436 220.843 362.726 234.472 374.012 244.349C385.298 254.225 399.808 259.674 414.833 259.677C429.856 259.677 444.364 254.229 455.647 244.351C466.929 234.473 474.212 220.842 476.136 206.005H353.502ZM472.763 186.84L422.535 117.942H449.388C455.922 117.942 461.181 112.609 461.181 106.017C461.181 99.4824 455.912 94.2068 449.388 94.2068H307.144C302.922 82.6245 295.71 72.3541 286.235 64.4293C276.76 56.5045 265.356 51.2049 253.171 49.0639V11.8868C253.171 5.27561 247.844 3.496e-05 241.244 3.496e-05L240.132 0.124054L239.021 3.496e-05C237.454 -0.00375925 235.901 0.301322 234.453 0.897697C233.005 1.49407 231.689 2.36995 230.582 3.47487C229.475 4.57979 228.599 5.89191 228.003 7.33562C227.408 8.77933 227.105 10.3261 227.113 11.8868V49.0448C214.929 51.1843 203.527 56.4836 194.055 64.4089C184.582 72.3341 177.375 82.6053 173.159 94.1877H30.8859C24.4003 94.1877 19.1121 99.4633 19.1121 105.998C19.1121 112.6 24.4003 117.923 30.8859 117.923H56.5124L6.2749 186.82H0V199.547H128.353V186.82H122.049L71.8308 117.942H188.41C188.41 115.252 188.707 112.609 189.109 110.081C189.521 108.889 189.799 107.677 189.799 106.427C191.958 97.3641 196.583 89.068 203.165 82.4494C209.747 75.8308 218.033 71.1453 227.113 68.9069V199.575H226.615C225.59 248.725 202.109 291.588 167.276 315.676H313.026C278.184 291.588 254.723 248.725 253.64 199.575H253.18V68.9069C262.259 71.1458 270.543 75.8317 277.124 82.4503C283.704 89.069 288.327 97.3648 290.485 106.427C290.523 107.677 290.782 108.889 291.203 110.081C291.586 112.619 291.826 115.252 291.826 117.942H407.188L356.951 186.84H350.685V199.566H479V186.84H472.763ZM59.0607 186.84H18.9684L59.0607 131.842V186.84ZM69.3209 186.84V131.842L109.413 186.84H69.3209ZM409.717 186.84H369.606L409.717 131.842V186.84ZM419.93 186.84V131.842L460.07 186.84H419.93ZM76.0748 77.6264C75.9869 80.7119 74.6942 83.6417 72.4715 85.7932C70.2489 87.9446 67.2713 89.1482 64.1716 89.1482C61.0719 89.1482 58.0944 87.9446 55.8717 85.7932C53.649 83.6417 52.3564 80.7119 52.2685 77.6264C52.2685 71.082 57.6141 65.7397 64.1956 65.7397C70.7483 65.7301 76.0748 71.082 76.0748 77.6264ZM426.741 76.9968C426.741 83.5889 421.415 88.8168 414.843 88.8168C413.28 88.8269 411.73 88.5282 410.284 87.9382C408.838 87.3481 407.523 86.4783 406.417 85.3791C405.31 84.2798 404.434 82.973 403.838 81.5342C403.242 80.0954 402.938 78.5532 402.944 76.9968C402.88 75.4008 403.14 73.8083 403.709 72.3149C404.278 70.8215 405.144 69.458 406.255 68.3061C407.367 67.1543 408.7 66.2378 410.176 65.6118C411.651 64.9858 413.239 64.6631 414.843 64.6631C416.447 64.6631 418.034 64.9858 419.51 65.6118C420.985 66.2378 422.319 67.1543 423.43 68.3061C424.541 69.458 425.407 70.8215 425.976 72.3149C426.545 73.8083 426.805 75.4008 426.741 76.9968Z" fill="#85A8BA"/>
</svg>
