<svg width="387" height="387" viewBox="0 0 387 387" fill="none" xmlns="http://www.w3.org/2000/svg">
<path d="M300.999 172C308.309 172 315.404 172.86 322.499 173.935V70.3049L161.25 0L0 70.3049V175.87C0 273.479 68.7998 364.854 161.25 386.999C173.075 384.204 184.47 380.119 195.65 375.174C180.815 354.104 172 328.519 172 300.999C172 229.835 229.834 172 300.999 172Z" fill="#B2B2B2"/>
<path d="M301 215C253.485 215 215 253.485 215 301C215 348.515 253.485 387 301 387C348.515 387 387 348.515 387 301C387 253.485 348.515 215 301 215ZM301 244.67C314.33 244.67 325.08 255.635 325.08 268.75C325.08 281.865 314.115 292.83 301 292.83C287.885 292.83 276.92 281.865 276.92 268.75C276.92 255.635 287.67 244.67 301 244.67ZM301 360.125C281.005 360.125 263.59 350.235 252.84 334.97C253.915 319.49 285.305 311.75 301 311.75C316.695 311.75 348.085 319.49 349.16 334.97C338.41 350.235 320.995 360.125 301 360.125Z" fill="#B2B2B2"/>
</svg>
