<svg width="343" height="325" viewBox="0 0 343 325" fill="none" xmlns="http://www.w3.org/2000/svg">
<path d="M208.315 113.75C214.473 113.747 220.468 115.722 225.406 119.382C230.345 123.042 233.963 128.191 235.723 134.062H224.583C212.671 134.062 201.246 138.771 192.822 147.151C184.399 155.532 179.667 166.898 179.667 178.75V179.562C170.444 181.436 162.154 186.421 156.201 193.676C150.249 200.931 146.998 210.01 147 219.375V290.68C130.764 286.991 116.268 277.924 105.888 264.967C95.5078 252.009 89.8587 235.928 89.866 219.359V142.188C89.866 126.49 102.655 113.75 118.449 113.75H208.315ZM281.75 134.062C293.629 134.062 305.024 138.744 313.442 147.082C321.86 155.421 326.615 166.737 326.667 178.555V142.188C326.667 134.645 323.655 127.412 318.295 122.079C312.934 116.746 305.664 113.75 298.083 113.75H242.958C247.728 119.486 251.076 126.425 252.497 134.062H281.75ZM83.8063 113.75C77.9045 120.782 74.3634 129.476 73.6797 138.613L73.5163 142.188V219.359C73.5163 233.123 76.6523 246.155 82.2383 257.79C76.8374 259.253 71.2024 259.989 65.3333 260C56.7523 260 48.2552 258.318 40.3276 255.051C32.3999 251.783 25.1969 246.994 19.1299 240.956C13.0629 234.919 8.25087 227.751 4.96852 219.863C1.68617 211.975 -0.00214323 203.521 2.04185e-06 194.984V142.188C0.000269983 135.051 2.69779 128.175 7.55711 122.925C12.4164 117.675 19.0822 114.435 26.2313 113.847L28.5833 113.75H83.8063ZM163.333 0C176.329 0 188.792 5.13615 197.982 14.2785C207.171 23.4209 212.333 35.8207 212.333 48.75C212.333 61.6793 207.171 74.0791 197.982 83.2215C188.792 92.3639 176.329 97.5 163.333 97.5C150.338 97.5 137.874 92.3639 128.685 83.2215C119.496 74.0791 114.333 61.6793 114.333 48.75C114.333 35.8207 119.496 23.4209 128.685 14.2785C137.874 5.13615 150.338 0 163.333 0ZM269.5 16.25C280.33 16.25 290.716 20.5301 298.374 28.1488C306.031 35.7675 310.333 46.1006 310.333 56.875C310.333 67.6494 306.031 77.9825 298.374 85.6012C290.716 93.2199 280.33 97.5 269.5 97.5C258.67 97.5 248.284 93.2199 240.626 85.6012C232.969 77.9825 228.667 67.6494 228.667 56.875C228.667 46.1006 232.969 35.7675 240.626 28.1488C248.284 20.5301 258.67 16.25 269.5 16.25ZM57.1667 16.25C67.9963 16.25 78.3825 20.5301 86.0402 28.1488C93.6979 35.7675 98 46.1006 98 56.875C98 67.6494 93.6979 77.9825 86.0402 85.6012C78.3825 93.2199 67.9963 97.5 57.1667 97.5C46.337 97.5 35.9509 93.2199 28.2931 85.6012C20.6354 77.9825 16.3333 67.6494 16.3333 56.875C16.3333 46.1006 20.6354 35.7675 28.2931 28.1488C35.9509 20.5301 46.337 16.25 57.1667 16.25ZM196 195H187.833C181.336 195 175.104 197.568 170.509 202.139C165.915 206.71 163.333 212.91 163.333 219.375V243.75H204.167V239.688C204.167 236.455 205.457 233.355 207.755 231.07C210.052 228.784 213.168 227.5 216.417 227.5C219.666 227.5 222.781 228.784 225.079 231.07C227.376 233.355 228.667 236.455 228.667 239.688V243.75H277.667V239.688C277.667 236.455 278.957 233.355 281.255 231.07C283.552 228.784 286.668 227.5 289.917 227.5C293.166 227.5 296.281 228.784 298.579 231.07C300.876 233.355 302.167 236.455 302.167 239.688V243.75H343V219.375C343 212.91 340.419 206.71 335.824 202.139C331.229 197.568 324.998 195 318.5 195H310.333V178.75C310.333 171.208 307.322 163.975 301.961 158.642C296.601 153.309 289.331 150.312 281.75 150.312H224.583C217.003 150.312 209.732 153.309 204.372 158.642C199.011 163.975 196 171.208 196 178.75V195ZM220.5 178.75C220.5 177.673 220.93 176.639 221.696 175.877C222.462 175.116 223.5 174.688 224.583 174.688H281.75C282.833 174.688 283.872 175.116 284.637 175.877C285.403 176.639 285.833 177.673 285.833 178.75V195H220.5V178.75ZM163.333 300.625V268.125H204.167V280.312C204.167 283.545 205.457 286.645 207.755 288.93C210.052 291.216 213.168 292.5 216.417 292.5C219.666 292.5 222.781 291.216 225.079 288.93C227.376 286.645 228.667 283.545 228.667 280.312V268.125H277.667V280.312C277.667 283.545 278.957 286.645 281.255 288.93C283.552 291.216 286.668 292.5 289.917 292.5C293.166 292.5 296.281 291.216 298.579 288.93C300.876 286.645 302.167 283.545 302.167 280.312V268.125H343V300.625C343 307.09 340.419 313.29 335.824 317.861C331.229 322.432 324.998 325 318.5 325H187.833C181.336 325 175.104 322.432 170.509 317.861C165.915 313.29 163.333 307.09 163.333 300.625Z" fill="#C09D92"/>
</svg>
