<svg width="100%" height="100%" viewBox="0 0 321 289" fill="none" xmlns="http://www.w3.org/2000/svg">
<path d="M128.431 208.338V192.349H16.3488L16.1884 256.304C16.1884 274.052 30.4592 288.282 48.2577 288.282H272.742C290.541 288.282 304.812 274.052 304.812 256.304V192.349H192.569V208.338H128.431ZM288.777 64.4372H224.478V32.4593L192.409 0.481445H128.27L96.2012 32.4593V64.4372H32.223C14.585 64.4372 0.153809 78.8272 0.153809 96.415V144.382C0.153809 162.13 14.4246 176.36 32.223 176.36H128.431V144.382H192.569V176.36H288.777C306.415 176.36 320.846 161.97 320.846 144.382V96.415C320.846 78.8272 306.415 64.4372 288.777 64.4372ZM192.569 64.4372H128.431V32.4593H192.569V64.4372Z" fill="#399DFF"/>
</svg>
