<svg width="100%" height="100%" viewBox="0 0 379 368" fill="none" xmlns="http://www.w3.org/2000/svg">
<path d="M36.4146 117.279C36.4146 77.0491 52.6595 38.4673 81.5756 10.0208C110.492 -18.4257 149.71 -34.4067 190.604 -34.4067C231.497 -34.4067 270.716 -18.4257 299.632 10.0208C328.548 38.4673 344.793 77.0491 344.793 117.279V139.706C382.151 144.972 410.874 176.587 410.874 214.79V220.208C410.874 258.671 377.151 292.388 337.48 290.59C321.18 336.529 279.725 367.494 234.988 375.339C224.636 379.066 212.389 377.31 201.617 377.31C192.855 377.31 184.451 373.886 178.254 367.79C172.058 361.695 168.577 353.427 168.577 344.806C168.577 336.186 172.058 327.918 178.254 321.823C184.451 315.727 192.855 312.302 201.617 312.302C219.085 312.302 238.425 309.81 250.231 325.499C278.778 312.129 300.739 283.894 300.739 247.294V117.279C300.739 88.5432 289.136 60.9848 268.481 40.6659C247.827 20.347 219.814 8.93191 190.604 8.93191C161.394 8.93191 133.381 20.347 112.727 40.6659C92.0722 60.9848 80.4687 88.5432 80.4687 117.279V252.712C80.4687 262.769 76.4075 272.415 69.1785 279.526C61.9494 286.638 52.1448 290.633 41.9214 290.633C22.9351 290.633 4.72644 283.213 -8.69889 270.006C-22.1242 256.799 -29.6665 238.886 -29.6665 220.208V214.79C-29.6713 196.55 -22.9932 178.918 -10.8564 165.128C1.28039 151.337 18.0628 142.312 36.4146 139.706V117.279Z" fill="#399DFF"/>
</svg>
