<svg width="100%" height="100%" viewBox="0 0 155 117" fill="none" xmlns="http://www.w3.org/2000/svg">
<path fill-rule="evenodd" clip-rule="evenodd" d="M79.7986 0.595193C78.3706 -0.198398 76.6285 -0.198398 75.2005 0.595193L1.89974 41.3311C0.417626 42.1548 -0.5 43.707 -0.5 45.3904C-0.5 47.0738 0.417626 48.626 1.89973 49.4497L26.7161 63.2411V86.7273C26.7161 88.4105 27.6336 89.9626 29.1154 90.7863L75.2009 116.405C76.6292 117.198 78.3717 117.198 79.7999 116.405L125.885 90.7863C127.367 89.9626 128.285 88.4105 128.285 86.7273V63.2401L146.102 53.3381V99.5364C146.102 102.107 148.206 104.191 150.801 104.191C153.396 104.191 155.5 102.107 155.5 99.5364V45.3956C155.5 44.7697 155.375 44.1726 155.149 43.6275C154.753 42.6703 154.04 41.8539 153.099 41.3311L79.7986 0.595193ZM121.404 56.3902C121.327 56.4299 121.252 56.4717 121.178 56.5155L77.4995 80.7894L33.8466 56.5299C33.757 56.4761 33.6655 56.4252 33.5721 56.3773L13.8021 45.3904L77.4995 9.9914L141.197 45.3904L121.404 56.3902ZM36.1137 68.4636L75.2005 90.1856C76.6285 90.9792 78.3706 90.9792 79.7986 90.1856L118.887 68.4626V84.002L77.5004 107.008L36.1137 84.002V68.4636Z" fill="#0EBCFF"/>
</svg>
