<svg width="100%" height="100%" viewBox="0 0 132 131" fill="none" xmlns="http://www.w3.org/2000/svg">
<path d="M57.7485 33.4536L40.0609 3.97605C39.3337 2.76343 38.3047 1.75985 37.0743 1.06305C35.844 0.366261 34.4541 1.73607e-05 33.0401 0H4.60125C1.28786 0 -0.651556 3.72787 1.24693 6.44254L29.7165 47.1139C37.3206 40.0087 46.9922 35.132 57.7485 33.4536ZM127.399 0H98.9599C96.084 0 93.418 1.50957 91.9391 3.97605L74.2515 33.4536C85.0079 35.132 94.6794 40.0087 102.284 47.1114L130.753 6.44254C132.652 3.72787 130.712 0 127.399 0ZM66 40.9375C41.1304 40.9375 20.9686 61.0992 20.9686 85.9688C20.9686 110.838 41.1304 131 66 131C90.8696 131 111.031 110.838 111.031 85.9688C111.031 61.0992 90.8696 40.9375 66 40.9375ZM89.6722 81.174L79.9674 90.6305L82.2625 103.991C82.6718 106.386 80.1491 108.216 78.0024 107.085L66 100.778L54.0002 107.085C51.8509 108.223 49.3307 106.384 49.7401 103.991L52.0352 90.6305L42.3304 81.174C40.5854 79.475 41.55 76.5096 43.9551 76.1617L57.3698 74.2069L63.3646 62.0485C63.9045 60.9534 64.9484 60.4135 65.9949 60.4135C67.0465 60.4135 68.0981 60.9611 68.6379 62.0485L74.6327 74.2069L88.0475 76.1617C90.4526 76.5096 91.4171 79.475 89.6722 81.174Z" fill="#FFB800"/>
</svg>
