<svg width="100%" height="100%" viewBox="0 0 122 122" fill="none" xmlns="http://www.w3.org/2000/svg">
<path d="M44.9612 24.1582C32.2045 38.4749 23.4499 59.0436 22.6369 60.9817L0 51.2913L25.3258 25.9712C28.2649 23.0328 32.5171 21.7199 36.6443 22.5327L44.9612 24.1582ZM57.3427 90.7406C57.3427 90.7406 80.73 81.0502 94.1746 67.6087C127.942 33.8486 122.314 7.46565 120.501 1.52637C114.56 -0.349196 88.1714 -5.91337 54.4037 27.8468C40.9591 41.2883 31.2665 64.6703 31.2665 64.6703L57.3427 90.7406ZM97.8641 77.049C83.544 89.8028 62.9707 98.5555 61.0322 99.3682L70.7248 122L96.0506 96.6799C98.9897 93.7415 100.303 89.4902 99.4899 85.364L97.8641 77.049ZM43.7731 96.9925C43.7731 102.182 41.6469 106.87 38.2702 110.246C30.8913 117.624 0 122 0 122C0 122 4.37731 91.1157 11.7562 83.7385C15.133 80.3625 19.8229 78.2369 25.0132 78.2369C35.3936 78.2369 43.7731 86.6144 43.7731 96.9925ZM68.7862 40.7256C68.7862 33.8486 74.4142 28.2219 81.2928 28.2219C88.1715 28.2219 93.7994 33.8486 93.7994 40.7256C93.7994 47.6027 88.1715 53.2294 81.2928 53.2294C74.4142 53.2294 68.7862 47.6027 68.7862 40.7256Z" fill="#AC39FF"/>
</svg>
