<svg width="100%" height="100%" viewBox="0 0 155 149" fill="none" xmlns="http://www.w3.org/2000/svg">
<path d="M94.1367 52.15C96.9195 52.1485 99.6284 53.0541 101.86 54.7321C104.092 56.4101 105.727 58.7707 106.522 61.4625H101.488C98.4619 61.4625 95.5981 62.133 93.0221 63.325H53.5267C53.0373 63.325 52.5679 63.5212 52.2219 63.8705C51.8758 64.2198 51.6814 64.6935 51.6814 65.1875V100.568C51.6814 110.297 57.8371 118.574 66.4286 121.651V133.266C59.0914 131.574 52.5409 127.418 47.8502 121.477C43.1595 115.536 40.6067 108.164 40.61 100.568V65.1875C40.61 57.9908 46.3893 52.15 53.5267 52.15H94.1367ZM127.321 61.4625C132.689 61.4624 137.839 63.6087 141.643 67.4315C145.447 71.2543 147.596 76.4425 147.619 81.8606V65.1875C147.619 61.7297 146.258 58.4136 143.836 55.9686C141.413 53.5236 138.128 52.15 134.702 52.15H109.792C111.947 54.7799 113.46 57.961 114.102 61.4625H127.321ZM12.9167 52.15H37.8717C35.2685 55.3248 33.6783 59.2206 33.3102 63.325H12.9167C12.4273 63.325 11.9579 63.5212 11.6119 63.8705C11.2658 64.2198 11.0714 64.6935 11.0714 65.1875V89.3925C11.0695 92.2082 11.7002 94.9877 12.9159 97.522C14.1316 100.056 15.9008 102.279 18.0904 104.024C20.2799 105.769 22.8329 106.989 25.5573 107.595C28.2817 108.2 31.1066 108.174 33.8195 107.518C34.4469 111.273 35.591 114.857 37.1631 118.187C34.7225 118.857 32.176 119.195 29.5238 119.2C25.6461 119.2 21.8063 118.429 18.2238 116.931C14.6414 115.433 11.3864 113.237 8.64472 110.469C5.90308 107.701 3.72853 104.415 2.24525 100.799C0.761973 97.1824 -0.000968513 93.3066 9.22703e-07 89.3925V65.1875C9.22703e-07 57.9908 5.78667 52.15 12.9167 52.15ZM73.8095 0C79.6822 0 85.3143 2.35473 89.4669 6.54616C93.6195 10.7376 95.9524 16.4224 95.9524 22.35C95.9524 28.2776 93.6195 33.9624 89.4669 38.1538C85.3143 42.3453 79.6822 44.7 73.8095 44.7C67.9369 44.7 62.3047 42.3453 58.1522 38.1538C53.9996 33.9624 51.6667 28.2776 51.6667 22.35C51.6667 16.4224 53.9996 10.7376 58.1522 6.54616C62.3047 2.35473 67.9369 0 73.8095 0ZM73.8095 11.175C70.8732 11.175 68.0571 12.3524 65.9808 14.4481C63.9045 16.5438 62.7381 19.3862 62.7381 22.35C62.7381 25.3138 63.9045 28.1562 65.9808 30.2519C68.0571 32.3476 70.8732 33.525 73.8095 33.525C76.7458 33.525 79.5619 32.3476 81.6382 30.2519C83.7145 28.1562 84.881 25.3138 84.881 22.35C84.881 19.3862 83.7145 16.5438 81.6382 14.4481C79.5619 12.3524 76.7458 11.175 73.8095 11.175ZM121.786 7.45C126.68 7.45 131.373 9.41227 134.834 12.9051C138.294 16.398 140.238 21.1353 140.238 26.075C140.238 31.0147 138.294 35.752 134.834 39.2449C131.373 42.7377 126.68 44.7 121.786 44.7C116.892 44.7 112.198 42.7377 108.738 39.2449C105.277 35.752 103.333 31.0147 103.333 26.075C103.333 21.1353 105.277 16.398 108.738 12.9051C112.198 9.41227 116.892 7.45 121.786 7.45ZM121.786 18.625C119.828 18.625 117.951 19.4099 116.567 20.8071C115.182 22.2042 114.405 24.0991 114.405 26.075C114.405 28.0509 115.182 29.9458 116.567 31.3429C117.951 32.7401 119.828 33.525 121.786 33.525C123.743 33.525 125.621 32.7401 127.005 31.3429C128.389 29.9458 129.167 28.0509 129.167 26.075C129.167 24.0991 128.389 22.2042 127.005 20.8071C125.621 19.4099 123.743 18.625 121.786 18.625ZM25.8333 7.45C30.7272 7.45 35.4206 9.41227 38.8811 12.9051C42.3416 16.398 44.2857 21.1353 44.2857 26.075C44.2857 31.0147 42.3416 35.752 38.8811 39.2449C35.4206 42.7377 30.7272 44.7 25.8333 44.7C20.9395 44.7 16.246 42.7377 12.7855 39.2449C9.32504 35.752 7.38095 31.0147 7.38095 26.075C7.38095 21.1353 9.32504 16.398 12.7855 12.9051C16.246 9.41227 20.9395 7.45 25.8333 7.45ZM25.8333 18.625C23.8758 18.625 21.9984 19.4099 20.6142 20.8071C19.23 22.2042 18.4524 24.0991 18.4524 26.075C18.4524 28.0509 19.23 29.9458 20.6142 31.3429C21.9984 32.7401 23.8758 33.525 25.8333 33.525C27.7909 33.525 29.6683 32.7401 31.0525 31.3429C32.4366 29.9458 33.2143 28.0509 33.2143 26.075C33.2143 24.0991 32.4366 22.2042 31.0525 20.8071C29.6683 19.4099 27.7909 18.625 25.8333 18.625ZM88.5714 89.4H84.881C81.9446 89.4 79.1286 90.5774 77.0523 92.6731C74.976 94.7688 73.8095 97.6112 73.8095 100.575V111.75H92.2619V109.887C92.2619 108.406 92.8451 106.984 93.8833 105.937C94.9214 104.889 96.3295 104.3 97.7976 104.3C99.2658 104.3 100.674 104.889 101.712 105.937C102.75 106.984 103.333 108.406 103.333 109.887V111.75H125.476V109.887C125.476 108.406 126.059 106.984 127.098 105.937C128.136 104.889 129.544 104.3 131.012 104.3C132.48 104.3 133.888 104.889 134.926 105.937C135.964 106.984 136.548 108.406 136.548 109.887V111.75H155V100.575C155 97.6112 153.834 94.7688 151.757 92.6731C149.681 90.5774 146.865 89.4 143.929 89.4H140.238V81.95C140.238 78.4922 138.877 75.1761 136.455 72.7311C134.033 70.2861 130.747 68.9125 127.321 68.9125H101.488C98.0624 68.9125 94.777 70.2861 92.3546 72.7311C89.9323 75.1761 88.5714 78.4922 88.5714 81.95V89.4ZM99.6429 81.95C99.6429 81.456 99.8373 80.9823 100.183 80.633C100.529 80.2837 100.999 80.0875 101.488 80.0875H127.321C127.811 80.0875 128.28 80.2837 128.626 80.633C128.972 80.9823 129.167 81.456 129.167 81.95V89.4H99.6429V81.95ZM73.8095 137.825V122.925H92.2619V128.512C92.2619 129.994 92.8451 131.416 93.8833 132.463C94.9214 133.511 96.3295 134.1 97.7976 134.1C99.2658 134.1 100.674 133.511 101.712 132.463C102.75 131.416 103.333 129.994 103.333 128.512V122.925H125.476V128.512C125.476 129.994 126.059 131.416 127.098 132.463C128.136 133.511 129.544 134.1 131.012 134.1C132.48 134.1 133.888 133.511 134.926 132.463C135.964 131.416 136.548 129.994 136.548 128.512V122.925H155V137.825C155 140.789 153.834 143.631 151.757 145.727C149.681 147.823 146.865 149 143.929 149H84.881C81.9446 149 79.1286 147.823 77.0523 145.727C74.976 143.631 73.8095 140.789 73.8095 137.825Z" fill="#6CCA4E"/>
</svg>
